<svg width="12" height="12" viewBox="0 0 12 12" fill="none" xmlns="http://www.w3.org/2000/svg">
<path fill-rule="evenodd" clip-rule="evenodd" d="M0 6C0 2.68629 2.68629 0 6 0C9.31371 0 12 2.68629 12 6C12 9.31371 9.31371 12 6 12C2.68629 12 0 9.31371 0 6ZM6 0.413793C2.91482 0.413793 0.413793 2.91482 0.413793 6C0.413793 9.08518 2.91482 11.5862 6 11.5862C9.08518 11.5862 11.5862 9.08518 11.5862 6C11.5862 2.91482 9.08518 0.413793 6 0.413793Z" fill="#27AE60"/>
<path d="M4.79396 7.43482L3.22441 5.89074L2.68994 6.41284L4.79396 8.48273L9.31063 4.03931L8.77992 3.51721L4.79396 7.43482Z" fill="#27AE60"/>
</svg>
