<svg width="20" height="20" viewBox="0 0 20 20" fill="none" xmlns="http://www.w3.org/2000/svg">
<path d="M17.1595 10.975C17.197 10.6625 17.222 10.3375 17.222 10C17.222 9.6625 17.197 9.3375 17.147 9.025L19.2595 7.375C19.447 7.225 19.497 6.95 19.3845 6.7375L17.3845 3.275C17.2595 3.05 16.997 2.975 16.772 3.05L14.2845 4.05C13.7595 3.65 13.2095 3.325 12.597 3.075L12.222 0.425C12.1845 0.175 11.972 0 11.722 0H7.72199C7.47199 0 7.27199 0.175 7.23449 0.425L6.85949 3.075C6.24699 3.325 5.68449 3.6625 5.17199 4.05L2.68449 3.05C2.45949 2.9625 2.19699 3.05 2.07199 3.275L0.0719942 6.7375C-0.0530058 6.9625 -0.00300564 7.225 0.196994 7.375L2.30949 9.025C2.25949 9.3375 2.22199 9.675 2.22199 10C2.22199 10.325 2.24699 10.6625 2.29699 10.975L0.184494 12.625C-0.00300594 12.775 -0.0530058 13.05 0.0594942 13.2625L2.05949 16.725C2.18449 16.95 2.44699 17.025 2.67199 16.95L5.15949 15.95C5.68449 16.35 6.23449 16.675 6.84699 16.925L7.22199 19.575C7.27199 19.825 7.47199 20 7.72199 20H11.722C11.972 20 12.1845 19.825 12.2095 19.575L12.5845 16.925C13.197 16.675 13.7595 16.3375 14.272 15.95L16.7595 16.95C16.9845 17.0375 17.247 16.95 17.372 16.725L19.372 13.2625C19.497 13.0375 19.447 12.775 19.247 12.625L17.1595 10.975ZM9.72199 13.75C7.65949 13.75 5.97199 12.0625 5.97199 10C5.97199 7.9375 7.65949 6.25 9.72199 6.25C11.7845 6.25 13.472 7.9375 13.472 10C13.472 12.0625 11.7845 13.75 9.72199 13.75Z" fill="#E5E5E5"/>
</svg>
