<svg width="51" height="85" viewBox="0 0 51 85" fill="none" xmlns="http://www.w3.org/2000/svg">
<path fill-rule="evenodd" clip-rule="evenodd" d="M32.813 0.362684C34.5585 1.22157 35.2772 3.33282 34.4183 5.07829L9.18128 56.3664H47.3623C49.3076 56.3664 50.8847 57.9434 50.8847 59.8888C50.8847 61.8341 49.3076 63.4111 47.3623 63.4111H3.52267C3.52246 63.4111 3.52236 63.4111 3.52236 59.8888L3.52267 63.4111C2.30589 63.4111 1.17497 62.7831 0.531978 61.7501C-0.111013 60.7171 -0.175317 59.4254 0.3619 58.3336L28.0974 1.968C28.9563 0.222524 31.0675 -0.4962 32.813 0.362684Z" fill="#E5E5E5"/>
<path fill-rule="evenodd" clip-rule="evenodd" d="M25.8893 35.2241C24.1265 35.2241 22.6976 36.653 22.6976 38.4158C22.6976 40.1785 24.1265 41.6074 25.8893 41.6074H41.7264L35.6555 53.6255H42.8071L49.7634 39.8549C50.2632 38.8654 50.2138 37.6875 49.633 36.7434C49.0522 35.7992 48.023 35.2241 46.9145 35.2241H25.8893ZM36.4797 66.1512H29.328L22.1457 80.3692C21.6459 81.3587 21.6953 82.5366 22.2761 83.4807C22.8569 84.4249 23.8861 85 24.9946 85H46.9145C48.6773 85 50.1062 83.5711 50.1062 81.8083C50.1062 80.0456 48.6773 78.6166 46.9145 78.6166H30.1827L36.4797 66.1512Z" fill="#E5E5E5"/>
</svg>
