<svg width="20" height="17" viewBox="0 0 20 17" fill="none" xmlns="http://www.w3.org/2000/svg">
<path d="M15 13.33C13.65 13.33 12.8 13.75 12.05 14.13C11.4 14.46 10.87 14.73 10 14.73C9.1 14.73 8.6 14.48 7.95 14.13C7.2 13.75 6.38 13.33 5 13.33C3.62 13.33 2.8 13.75 2.05 14.13C1.4 14.46 0.88 14.73 0 14.73V16.68C1.35 16.68 2.2 16.26 2.95 15.88C3.6 15.55 4.12 15.28 5 15.28C5.88 15.28 6.4 15.53 7.05 15.88C7.8 16.26 8.62 16.68 10 16.68C11.38 16.68 12.2 16.26 12.95 15.88C13.6 15.55 14.13 15.28 15 15.28C15.9 15.28 16.4 15.53 17.05 15.88C17.8 16.26 18.63 16.68 20 16.68V14.73C19.1 14.73 18.6 14.48 17.95 14.13C17.2 13.75 16.35 13.33 15 13.33ZM15 8.88C13.65 8.88 12.8 9.31 12.05 9.68C11.4 10 10.87 10.28 10 10.28C9.1 10.28 8.6 10.03 7.95 9.68C7.2 9.3 6.38 8.88 5 8.88C3.62 8.88 2.8 9.31 2.05 9.68C1.4 10 0.88 10.28 0 10.28V12.23C1.35 12.23 2.2 11.8 2.95 11.43C3.6 11.08 4.1 10.83 5 10.83C5.9 10.83 6.4 11.08 7.05 11.43C7.8 11.81 8.62 12.23 10 12.23C11.38 12.23 12.2 11.8 12.95 11.43C13.6 11.08 14.1 10.83 15 10.83C15.9 10.83 16.4 11.08 17.05 11.43C17.8 11.81 18.63 12.23 20 12.23V10.28C19.1 10.28 18.6 10.03 17.95 9.68C17.2 9.3 16.35 8.88 15 8.88ZM17.95 0.8C17.2 0.42 16.37 0 15 0C13.63 0 12.8 0.42 12.05 0.8C11.4 1.12 10.87 1.4 10 1.4C9.1 1.4 8.6 1.15 7.95 0.8C7.2 0.43 6.38 0 5 0C3.62 0 2.8 0.42 2.05 0.8C1.4 1.13 0.88 1.4 0 1.4V3.33C1.35 3.33 2.2 2.9 2.95 2.53C3.6 2.2 4.12 1.93 5 1.93C5.88 1.93 6.4 2.18 7.05 2.53C7.8 2.91 8.62 3.33 10 3.33C11.38 3.33 12.2 2.9 12.95 2.53C13.6 2.21 14.13 1.93 15 1.93C15.9 1.93 16.4 2.18 17.05 2.53C17.8 2.91 18.63 3.33 20 3.33V1.38C19.1 1.38 18.6 1.13 17.95 0.8ZM15 4.43C13.65 4.43 12.8 4.86 12.05 5.23C11.4 5.58 10.9 5.83 10 5.83C9.1 5.83 8.6 5.58 7.95 5.23C7.2 4.85 6.38 4.43 5 4.43C3.62 4.43 2.8 4.86 2.05 5.23C1.4 5.58 0.9 5.83 0 5.83V7.78C1.35 7.78 2.2 7.35 2.95 6.98C3.6 6.66 4.13 6.38 5 6.38C5.87 6.38 6.4 6.63 7.05 6.98C7.8 7.36 8.62 7.78 10 7.78C11.38 7.78 12.2 7.35 12.95 6.98C13.6 6.66 14.13 6.38 15 6.38C15.9 6.38 16.4 6.63 17.05 6.98C17.8 7.36 18.63 7.78 20 7.78V5.83C19.1 5.83 18.6 5.58 17.95 5.23C17.2 4.85 16.35 4.43 15 4.43Z" fill="#E5E5E5"/>
</svg>
