<svg width="17" height="12" viewBox="0 0 17 12" fill="none" xmlns="http://www.w3.org/2000/svg">
<path d="M13.9091 3L10.8182 6H13.1364C13.1364 8.4825 11.0577 10.5 8.5 10.5C7.71955 10.5 6.97773 10.3125 6.33636 9.975L5.20818 11.07C6.15864 11.655 7.28682 12 8.5 12C11.9155 12 14.6818 9.315 14.6818 6H17L13.9091 3ZM3.86364 6C3.86364 3.5175 5.94227 1.5 8.5 1.5C9.28045 1.5 10.0223 1.6875 10.6636 2.025L11.7918 0.93C10.8414 0.345 9.71318 0 8.5 0C5.08455 0 2.31818 2.685 2.31818 6H0L3.09091 9L6.18182 6H3.86364Z" fill="white"/>
</svg>
