<svg width="20" height="19" viewBox="0 0 20 19" fill="none" xmlns="http://www.w3.org/2000/svg">
<path d="M18.9474 15.2778V16.2963C18.9474 17.4167 18 18.3333 16.8421 18.3333H2.10526C0.936842 18.3333 0 17.4167 0 16.2963V2.03704C0 0.916667 0.936842 0 2.10526 0H16.8421C18 0 18.9474 0.916667 18.9474 2.03704V3.05556H9.47368C8.30526 3.05556 7.36842 3.97222 7.36842 5.09259V13.2407C7.36842 14.3611 8.30526 15.2778 9.47368 15.2778H18.9474ZM9.47368 13.2407H20V5.09259H9.47368V13.2407ZM13.6842 10.6944C12.8105 10.6944 12.1053 10.012 12.1053 9.16667C12.1053 8.3213 12.8105 7.63889 13.6842 7.63889C14.5579 7.63889 15.2632 8.3213 15.2632 9.16667C15.2632 10.012 14.5579 10.6944 13.6842 10.6944Z" fill="#E5E5E5"/>
</svg>
